<svg width="180" height="180" viewBox="0 0 180 180" fill="none" xmlns="http://www.w3.org/2000/svg"><circle cx="20" cy="20" r="3" fill="white" fill-opacity="0.8"/><circle cx="20" cy="48" r="3" fill="white" fill-opacity="0.8"/><circle cx="20" cy="76" r="3" fill="white" fill-opacity="0.8"/><circle cx="20" cy="104" r="3" fill="white" fill-opacity="0.8"/><circle cx="20" cy="132" r="3" fill="white" fill-opacity="0.8"/><circle cx="20" cy="160" r="3" fill="white" fill-opacity="0.8"/><circle cx="48" cy="20" r="3" fill="white" fill-opacity="0.8"/><circle cx="48" cy="48" r="3" fill="white" fill-opacity="0.8"/><circle cx="48" cy="76" r="3" fill="white" fill-opacity="0.8"/><circle cx="48" cy="104" r="3" fill="white" fill-opacity="0.8"/><circle cx="48" cy="132" r="3" fill="white" fill-opacity="0.8"/><circle cx="48" cy="160" r="3" fill="white" fill-opacity="0.8"/><circle cx="76" cy="20" r="3" fill="white" fill-opacity="0.8"/><circle cx="76" cy="48" r="3" fill="white" fill-opacity="0.8"/><circle cx="76" cy="76" r="3" fill="white" fill-opacity="0.8"/><circle cx="76" cy="104" r="3" fill="white" fill-opacity="0.8"/><circle cx="76" cy="132" r="3" fill="white" fill-opacity="0.8"/><circle cx="76" cy="160" r="3" fill="white" fill-opacity="0.8"/><circle cx="104" cy="20" r="3" fill="white" fill-opacity="0.8"/><circle cx="104" cy="48" r="3" fill="white" fill-opacity="0.8"/><circle cx="104" cy="76" r="3" fill="white" fill-opacity="0.8"/><circle cx="104" cy="104" r="3" fill="white" fill-opacity="0.8"/><circle cx="104" cy="132" r="3" fill="white" fill-opacity="0.8"/><circle cx="104" cy="160" r="3" fill="white" fill-opacity="0.8"/><circle cx="132" cy="20" r="3" fill="white" fill-opacity="0.8"/><circle cx="132" cy="48" r="3" fill="white" fill-opacity="0.8"/><circle cx="132" cy="76" r="3" fill="white" fill-opacity="0.8"/><circle cx="132" cy="104" r="3" fill="white" fill-opacity="0.8"/><circle cx="132" cy="132" r="3" fill="white" fill-opacity="0.8"/><circle cx="132" cy="160" r="3" fill="white" fill-opacity="0.8"/><circle cx="160" cy="20" r="3" fill="white" fill-opacity="0.8"/><circle cx="160" cy="48" r="3" fill="white" fill-opacity="0.8"/><circle cx="160" cy="76" r="3" fill="white" fill-opacity="0.8"/><circle cx="160" cy="104" r="3" fill="white" fill-opacity="0.8"/><circle cx="160" cy="132" r="3" fill="white" fill-opacity="0.8"/><circle cx="160" cy="160" r="3" fill="white" fill-opacity="0.8"/></svg>
